<?xml version="1.0" encoding="UTF-8"?>
<svg id="Layer_1" data-name="Layer 1" xmlns="http://www.w3.org/2000/svg" viewBox="0 0 1000 1000">
  <defs>
    <style>
      .cls-1 {
        fill: #5e9e62;
      }

      .cls-1, .cls-2, .cls-3 {
        stroke-width: 0px;
      }

      .cls-2 {
        fill: #fbfdfd;
      }

      .cls-3 {
        fill: #1b3225;
      }
    </style>
  </defs>
  <path class="cls-3" d="M648.55,755.79c-23.93,16.72-50.11,28.51-78.33,35.88-29.62,7.74-59.69,10.56-90.17,7.43-41.26-4.24-79.35-17.19-111.93-43.52-24.13-19.5-41.78-43.78-47.33-74.93-5.66-31.79-.5-61.79,19.84-87.79,8.42-10.77,3.7-15.36-5.43-18.86-33.86-12.98-63.97-31.74-89.5-57.63-1.53-1.55-3.04-3.16-4.33-4.92-5.01-6.82-3.35-13.07,4.37-16.79,6.47-3.11,13.59-3.48,20.49-4.4,35.61-4.77,71.42-5.62,107.26-4.59,47.95,1.38,95.22,7.83,141.73,19.74,9.49,2.43,16.51-.58,19.2-7.79,3.13-8.41-.49-17.38-9.11-21.61-7.9-3.87-16.61-5.33-25.07-7.4-16.99-4.17-34.16-7.41-51.5-9.78-1.08-.15-2.14-.42-3.97-.78,7.78-4.51,14.41-9.52,20.09-15.66,16.39-17.71,22.92-38.67,20.46-62.55.97-3.03,2.5-.72,3.47-.18,15.48,8.76,30.92,17.59,45.64,27.61,2.13,1.45,4.02,3.63,7.05,3.14.87,4.45,3.63,7.49,7.32,9.86,3.41,2.2,6.94,4.26,10.16,6.71,27.25,20.8,50.13,45.71,68.57,74.54,23.1,36.13,35.15,75.4,31.63,118.69-.83,10.22-3.1,20.14-7.89,29.42-.39-.26-.57-.32-.57-.4-.05-.46-.07-.93-.07-1.4.29-45.85-18.47-82.1-55.18-109.24-4.14-3.06-8.57-5.76-13.53-7.37-5.37-1.75-11.11.28-13.46,4.65-2.22,4.13-1.03,8.36,3.53,12.35,1.18,1.03,2.46,1.93,3.7,2.87,16.65,12.59,29.68,28.14,37.99,47.35,12.44,28.75,13.23,57.22-3.45,84.75-19.05,31.45-57.2,44.67-89.9,31.44-21.2-8.58-34.21-28.36-32.97-50.72.5-9.11,4.04-16.98,11.66-22.54,5.27-3.84,12.67-4.11,17.33-.69-5.09,4.41-4.85,10.01-2.58,15.41,2.43,5.78,7.2,8.84,13.68,8.77,9.61-.1,16.19-8.49,14.86-19.21-1.72-13.78-9.56-23.96-20.03-32.21-26.25-20.68-66.78-23.29-96.89-6.53-37.45,20.84-47.4,61.89-23.47,97.53,13.83,20.6,33.47,34,56.14,42.87,30.93,12.11,62.99,14.7,95.81,9.8,31.22-4.66,58.83-17.16,82.98-37.34,15.38-12.86,27.89-28.21,38.39-45.24.59.38.79.93.65,1.59-1.36,6.55-2.67,13.11-4.11,19.65-4.67,21.19-13.35,40.83-23.24,59.99Z"/>
  <path class="cls-1" d="M541.49,410.41c-3.03.49-4.92-1.7-7.05-3.14-14.72-10.02-30.16-18.85-45.64-27.61-.96-.55-2.5-2.85-3.47.18-3.61-20.25-13.56-36.71-29.8-49.26-11.64-8.99-25.11-13.54-39.56-15.44-.25-2.4.96-3.86,3.1-4.63,2.5-.89,4.98-1.93,7.55-2.52,26.37-6.04,52.16-13.98,77.47-23.5,27.22-10.24,54.12-21.22,79.79-35.02,3.38-1.82,6.55-4.36,10.64-4.61-1.88,5.83-5.91,10.57-8.17,16.21-.58,1.45-1.35,2.83-1.85,4.31-2.6,7.68-.83,11.33,6.99,12.87,13.23,2.62,26.16,6.16,38.42,11.76,14.39,6.58,28.24,14.08,41.22,23.34,11.01,7.86,21.58,16.12,30.86,25.89,10.75,11.31,20.13,23.68,29.03,36.56,12.12,17.55,21.22,36.5,28.48,56.33,6.79,18.54,11.14,37.76,13.65,57.45,2.13,16.74,3.01,33.43,1.83,50.23-3.69,52.26-19.51,100.47-49.68,143.44-19.93,28.38-44.53,52.29-73.83,71.13-.9.58-1.95.93-2.92,1.39,9.89-19.16,18.57-38.8,23.24-59.99,1.44-6.53,2.75-13.1,4.11-19.65.14-.67-.06-1.22-.65-1.6,13.25-22.78,19.75-47.58,20.3-73.7.83-39.35-11.59-75.05-32.36-108.02-18.11-28.75-41.9-51.91-70.62-69.97-11.92-7.5-24.41-13.95-37.79-18.48-7.09-2.4-11.07-.45-13.28,6.03Z"/>
  <path class="cls-3" d="M594.52,244.86c-4.1.25-7.26,2.79-10.64,4.61-25.67,13.8-52.57,24.78-79.79,35.02-25.31,9.52-51.1,17.46-77.47,23.5-2.57.59-5.05,1.63-7.55,2.52-2.14.77-3.35,2.23-3.1,4.63-15.03-.4-29.48,1.75-43.11,8.68-46.92,23.88-55.91,84.82-17.7,120.94,2.68,2.54,5.73,4.69,9.63,7.85-10.29-.99-19.4-.88-28.51-1-28.34-.36-56.6.65-84.77,3.89-5.74.66-11.41,1.95-17.22,1.92-7.12-.03-11.54-5.28-10.43-12.36.84-5.37,3.56-10.02,6.19-14.58,27.86-48.27,64.55-88.46,110.42-120.21,15.88-6.26,26.67-19.2,39.26-29.8,36.99-31.12,78.09-54.84,124.79-68.16,26.93-7.68,54.33-11.61,82.4-8.58,4.96.53,9.87,1.46,14.51,3.4,8.59,3.58,11.07,10.07,6.52,18.03-3.94,6.9-8.31,13.57-13.43,19.7Z"/>
  <path class="cls-3" d="M359.01,378.51c9.05,4.44,14.94,4.03,18.84-1.09,4.02-5.27,2.82-10.67-4.1-18.51,10.02-7.44,23.95-6.68,33.5,1.83,10.57,9.41,13.18,24.51,6.33,36.57-6.82,11.99-21.7,17.57-35.26,13.04-12.33-4.12-21.8-17.09-19.31-31.84Z"/>
  <path class="cls-3" d="M250.13,475.02c-4.87,2.33-9.55,4.57-14.03,7.31-12.56,7.69-19.99,18.51-21.08,33.37-.18,2.42-.92,4.59-2.33,6.51-2.52,3.43-5.93,5.24-10.17,4.34-4.25-.9-6.72-3.97-7.36-8.16-1.31-8.59,1.08-16.45,5.6-23.63,7.98-12.66,19.4-19.57,34.57-19.74,4.93-.05,9.86,0,14.8,0Z"/>
  <path class="cls-2" d="M541.49,410.41c2.22-6.48,6.19-8.43,13.28-6.03,13.38,4.53,25.87,10.98,37.79,18.48,28.72,18.06,52.51,41.22,70.62,69.97,20.77,32.97,33.19,68.67,32.36,108.02-.55,26.12-7.05,50.91-20.3,73.7-10.49,17.04-23.01,32.39-38.39,45.24-24.15,20.18-51.75,32.68-82.98,37.34-32.82,4.9-64.88,2.31-95.81-9.8-22.68-8.88-42.32-22.27-56.14-42.87-23.93-35.65-13.98-76.69,23.47-97.53,30.11-16.76,70.64-14.15,96.89,6.53,10.47,8.25,18.31,18.43,20.03,32.21,1.33,10.72-5.25,19.11-14.86,19.21-6.48.07-11.26-3-13.68-8.77-2.27-5.4-2.51-11,2.58-15.41-4.67-3.42-12.06-3.15-17.33.69-7.62,5.55-11.16,13.43-11.66,22.54-1.23,22.36,11.77,42.14,32.97,50.72,32.69,13.23,70.84.02,89.9-31.44,16.68-27.53,15.89-56,3.45-84.75-8.31-19.21-21.34-34.76-37.99-47.35-1.25-.94-2.53-1.85-3.7-2.87-4.56-3.98-5.74-8.21-3.53-12.35,2.35-4.37,8.08-6.4,13.46-4.65,4.96,1.61,9.39,4.31,13.53,7.37,36.71,27.14,55.47,63.39,55.18,109.24,0,.47.02.94.07,1.4,0,.08.19.14.57.4,4.79-9.28,7.06-19.2,7.89-29.42,3.52-43.29-8.53-82.56-31.63-118.69-18.44-28.83-41.32-53.75-68.57-74.54-3.22-2.46-6.74-4.51-10.16-6.71-3.69-2.38-6.44-5.42-7.32-9.86Z"/>
</svg>